<svg width="330" height="155" viewBox="0 0 330 155" fill="none" xmlns="http://www.w3.org/2000/svg">
<path d="M125.493 106C125.493 107.104 126.389 108 127.493 108H134.909C136.013 108 136.909 107.104 136.909 106V48.3047C136.909 47.2001 136.013 46.3047 134.909 46.3047H127.493C126.389 46.3047 125.493 47.2001 125.493 48.3047V106Z" fill="#FF666A"/>
<path fill-rule="evenodd" clip-rule="evenodd" d="M153.688 106.195C157.13 108.238 161.131 109.259 165.691 109.259C170.224 109.259 174.211 108.252 177.653 106.237C181.122 104.195 183.822 101.383 185.753 97.8012C187.711 94.1918 188.691 90.0369 188.691 85.3363C188.691 80.6637 187.725 76.5367 185.795 72.9553C183.864 69.3459 181.164 66.52 177.695 64.4775C174.253 62.4349 170.252 61.4137 165.691 61.4137C161.215 61.4137 157.256 62.421 153.814 64.4355C150.373 66.45 147.672 69.262 145.714 72.8714C143.755 76.4527 142.776 80.6077 142.776 85.3363C142.776 90.0089 143.727 94.1499 145.63 97.7592C147.561 101.341 150.247 104.153 153.688 106.195ZM173.875 94.9053C172.085 97.3675 169.357 98.5986 165.691 98.5986C162.138 98.5986 159.438 97.4095 157.591 95.0312C155.773 92.625 154.863 89.3933 154.863 85.3363C154.863 82.7062 155.241 80.3979 155.996 78.4113C156.78 76.4248 157.969 74.8719 159.564 73.7527C161.159 72.6335 163.201 72.0739 165.691 72.0739C169.301 72.0739 172.015 73.2771 173.833 75.6833C175.68 78.0896 176.603 81.3072 176.603 85.3363C176.603 89.2254 175.694 92.4151 173.875 94.9053Z" fill="#FF666A"/>
<path fill-rule="evenodd" clip-rule="evenodd" d="M206.314 109.259C203.068 109.259 200.312 108.643 198.046 107.412C195.808 106.153 194.101 104.488 192.926 102.418C191.778 100.319 191.205 98.0111 191.205 95.4929C191.205 93.3944 191.527 91.4778 192.17 89.7431C192.814 88.0083 193.849 86.4834 195.276 85.1684C196.731 83.8254 198.675 82.7062 201.11 81.8108C202.788 81.1953 204.789 80.6497 207.111 80.174C209.434 79.6984 212.064 79.2507 215.002 78.831C216.731 78.5675 218.562 78.2895 220.494 77.9969C220.277 76.1282 219.664 74.6995 218.653 73.7107C217.366 72.4517 215.211 71.8221 212.19 71.8221C210.511 71.8221 208.762 72.2278 206.943 73.0392C205.125 73.8506 203.852 75.2916 203.124 77.3621L192.8 74.0885C193.947 70.3392 196.101 67.2894 199.263 64.9391C202.425 62.5888 206.734 61.4137 212.19 61.4137C216.191 61.4137 219.744 62.0292 222.85 63.2603C225.956 64.4914 228.306 66.6179 229.901 69.6397C230.796 71.3185 231.328 72.9973 231.496 74.676C231.663 76.3548 231.747 78.2295 231.747 80.2999V108H221.759V102.436C219.955 104.56 218.039 106.163 216.009 107.244C213.463 108.587 210.231 109.259 206.314 109.259ZM208.748 100.277C210.847 100.277 212.609 99.9137 214.036 99.1862C215.491 98.4308 216.638 97.5774 217.478 96.6261C218.345 95.6748 218.933 94.8773 219.24 94.2338C219.828 93.0027 220.164 91.5757 220.248 89.9529C220.316 88.9471 220.363 88.0452 220.39 87.2471C218.51 87.5681 216.896 87.8545 215.547 88.1063C213.449 88.47 211.756 88.8058 210.469 89.1135C209.182 89.4213 208.049 89.7571 207.069 90.1208C205.95 90.5685 205.041 91.0581 204.341 91.5897C203.67 92.0934 203.166 92.653 202.83 93.2685C202.523 93.8841 202.369 94.5696 202.369 95.325C202.369 96.3603 202.621 97.2556 203.124 98.0111C203.656 98.7385 204.397 99.2981 205.349 99.6898C206.3 100.082 207.433 100.277 208.748 100.277Z" fill="#FF666A"/>
<path fill-rule="evenodd" clip-rule="evenodd" d="M245.892 106.111C249.025 108.21 252.677 109.259 256.846 109.259C261.35 109.259 265.114 108.21 268.136 106.111C268.466 105.881 268.788 105.643 269.101 105.395V108H279.174V47.5638H267.674V64.1345C264.853 62.3206 261.439 61.4137 257.433 61.4137C253.096 61.4137 249.319 62.4489 246.102 64.5194C242.884 66.5899 240.38 69.4299 238.589 73.0392C236.826 76.6206 235.945 80.7196 235.945 85.3363C235.945 89.869 236.812 93.94 238.547 97.5494C240.31 101.159 242.758 104.013 245.892 106.111ZM269.101 85.3363C269.101 88.0783 268.765 90.4845 268.094 92.555C267.422 94.6255 266.317 96.2344 264.778 97.3815C263.267 98.5287 261.239 99.1023 258.692 99.1023C256.23 99.1023 254.216 98.4867 252.649 97.2556C251.082 96.0245 249.921 94.3737 249.165 92.3032C248.41 90.2047 248.032 87.8824 248.032 85.3363C248.032 82.8181 248.424 80.5238 249.207 78.4533C249.991 76.3548 251.194 74.69 252.817 73.4589C254.467 72.1998 256.566 71.5703 259.112 71.5703C261.49 71.5703 263.407 72.1439 264.862 73.291C266.345 74.4382 267.422 76.047 268.094 78.1175C268.765 80.188 269.101 82.5943 269.101 85.3363Z" fill="#FF666A"/>
<path d="M50.5693 52.4911C50.5693 48.1188 50.5693 45.9326 51.4202 44.2627C52.1687 42.7937 53.363 41.5994 54.832 40.8509C56.502 40 58.6881 40 63.0604 40H95.8495C98.3479 40 99.5972 40 100.551 40.4862C101.391 40.9139 102.073 41.5964 102.501 42.4358C102.987 43.3901 102.987 44.6393 102.987 47.1378V102.232C102.987 106.605 102.987 108.791 102.136 110.461C101.388 111.93 100.194 113.124 98.7246 113.872C97.0546 114.723 94.8685 114.723 90.4962 114.723H63.0604C58.6881 114.723 56.502 114.723 54.832 113.872C53.363 113.124 52.1687 111.93 51.4202 110.461C50.5693 108.791 50.5693 106.605 50.5693 102.232V52.4911Z" fill="#FBDAD3"/>
<path d="M74.3605 81.4077C75.5398 79.7313 78.0182 79.7313 79.1975 81.4077L94.6343 103.351C96.018 105.318 94.6157 108.032 92.2158 108.032H61.3421C58.9423 108.032 57.54 105.318 58.9236 103.351L74.3605 81.4077Z" fill="url(#paint0_linear_5_1265)"/>
<path d="M79.1976 73.3165C78.0183 74.9928 75.5399 74.9928 74.3606 73.3165L58.9238 51.3729C57.5401 49.406 58.9424 46.6919 61.3423 46.6919L92.216 46.6919C94.6158 46.6919 96.0181 49.406 94.6345 51.3729L79.1976 73.3165Z" fill="url(#paint1_linear_5_1265)"/>
<defs>
<linearGradient id="paint0_linear_5_1265" x1="76.779" y1="89.0726" x2="76.779" y2="97.4371" gradientUnits="userSpaceOnUse">
<stop stop-color="#FFC0A2"/>
<stop offset="1" stop-color="#FDA67B"/>
</linearGradient>
<linearGradient id="paint1_linear_5_1265" x1="76.7791" y1="57.8446" x2="76.7791" y2="66.7668" gradientUnits="userSpaceOnUse">
<stop stop-color="#FFC0A2"/>
<stop offset="1" stop-color="#FDA67B"/>
</linearGradient>
</defs>
</svg>
